<mxfile host="Electron" modified="2024-02-26T04:09:31.383Z" agent="Mozilla/5.0 (Windows NT 10.0; Win64; x64) AppleWebKit/537.36 (KHTML, like Gecko) draw.io/23.1.5 Chrome/120.0.6099.109 Electron/28.1.0 Safari/537.36" etag="oI97D5vPdwg3e7v-eCw7" version="23.1.5" type="device">
  <diagram name="Page-1" id="7OuCh12BhLA2df7AFFy7">
    <mxGraphModel dx="794" dy="511" grid="1" gridSize="10" guides="1" tooltips="1" connect="1" arrows="1" fold="1" page="1" pageScale="1" pageWidth="850" pageHeight="1100" math="0" shadow="0">
      <root>
        <mxCell id="0" />
        <mxCell id="1" parent="0" />
        <mxCell id="arnfnbacI_k0kXiNRGBE-1" value="&lt;div&gt;&lt;b&gt;Problem&lt;/b&gt;:&amp;nbsp;&lt;/div&gt;&lt;div&gt;Write a program to find the number of times&amp;nbsp;&lt;span style=&quot;background-color: initial;&quot;&gt;a given number appears in an array.&lt;/span&gt;&lt;/div&gt;&lt;b&gt;&lt;br&gt;Algorithm:&lt;/b&gt;&lt;br&gt;1. Start&amp;nbsp;&lt;br&gt;2. Read size&lt;br&gt;3. Declare arr[size]&lt;br&gt;4. populateData(arr,size)&lt;br&gt;3. Read target&amp;nbsp;&lt;br&gt;4. result = find(arr,size,target)&lt;br&gt;5. Display result&amp;nbsp;&lt;br&gt;6. Stop" style="text;html=1;align=left;verticalAlign=middle;whiteSpace=wrap;rounded=0;" vertex="1" parent="1">
          <mxGeometry x="10" y="10" width="230" height="210" as="geometry" />
        </mxCell>
        <mxCell id="arnfnbacI_k0kXiNRGBE-4" value="" style="edgeStyle=orthogonalEdgeStyle;rounded=0;orthogonalLoop=1;jettySize=auto;html=1;" edge="1" parent="1" source="arnfnbacI_k0kXiNRGBE-2" target="arnfnbacI_k0kXiNRGBE-3">
          <mxGeometry relative="1" as="geometry" />
        </mxCell>
        <mxCell id="arnfnbacI_k0kXiNRGBE-2" value="Start" style="strokeWidth=2;html=1;shape=mxgraph.flowchart.start_1;whiteSpace=wrap;" vertex="1" parent="1">
          <mxGeometry x="375" y="10" width="100" height="60" as="geometry" />
        </mxCell>
        <mxCell id="arnfnbacI_k0kXiNRGBE-6" value="" style="edgeStyle=orthogonalEdgeStyle;rounded=0;orthogonalLoop=1;jettySize=auto;html=1;" edge="1" parent="1" source="arnfnbacI_k0kXiNRGBE-3" target="arnfnbacI_k0kXiNRGBE-5">
          <mxGeometry relative="1" as="geometry" />
        </mxCell>
        <mxCell id="arnfnbacI_k0kXiNRGBE-3" value="Read size" style="shape=parallelogram;perimeter=parallelogramPerimeter;whiteSpace=wrap;html=1;fixedSize=1;strokeWidth=2;" vertex="1" parent="1">
          <mxGeometry x="365" y="100" width="120" height="40" as="geometry" />
        </mxCell>
        <mxCell id="arnfnbacI_k0kXiNRGBE-8" value="" style="edgeStyle=orthogonalEdgeStyle;rounded=0;orthogonalLoop=1;jettySize=auto;html=1;" edge="1" parent="1" source="arnfnbacI_k0kXiNRGBE-5" target="arnfnbacI_k0kXiNRGBE-7">
          <mxGeometry relative="1" as="geometry" />
        </mxCell>
        <mxCell id="arnfnbacI_k0kXiNRGBE-10" value="" style="edgeStyle=orthogonalEdgeStyle;rounded=0;orthogonalLoop=1;jettySize=auto;html=1;" edge="1" parent="1" source="arnfnbacI_k0kXiNRGBE-5" target="arnfnbacI_k0kXiNRGBE-9">
          <mxGeometry relative="1" as="geometry" />
        </mxCell>
        <mxCell id="arnfnbacI_k0kXiNRGBE-5" value="Create arr[size]" style="whiteSpace=wrap;html=1;strokeWidth=2;" vertex="1" parent="1">
          <mxGeometry x="365" y="160" width="120" height="40" as="geometry" />
        </mxCell>
        <mxCell id="arnfnbacI_k0kXiNRGBE-7" value="populateData(arr[])" style="shape=process;whiteSpace=wrap;html=1;backgroundOutline=1;strokeWidth=2;" vertex="1" parent="1">
          <mxGeometry x="565" y="150" width="135" height="60" as="geometry" />
        </mxCell>
        <mxCell id="arnfnbacI_k0kXiNRGBE-12" value="" style="edgeStyle=orthogonalEdgeStyle;rounded=0;orthogonalLoop=1;jettySize=auto;html=1;" edge="1" parent="1" source="arnfnbacI_k0kXiNRGBE-9" target="arnfnbacI_k0kXiNRGBE-11">
          <mxGeometry relative="1" as="geometry" />
        </mxCell>
        <mxCell id="arnfnbacI_k0kXiNRGBE-9" value="Read target" style="shape=parallelogram;perimeter=parallelogramPerimeter;whiteSpace=wrap;html=1;fixedSize=1;strokeWidth=2;" vertex="1" parent="1">
          <mxGeometry x="365" y="220" width="120" height="40" as="geometry" />
        </mxCell>
        <mxCell id="arnfnbacI_k0kXiNRGBE-14" value="" style="edgeStyle=orthogonalEdgeStyle;rounded=0;orthogonalLoop=1;jettySize=auto;html=1;" edge="1" parent="1" source="arnfnbacI_k0kXiNRGBE-11" target="arnfnbacI_k0kXiNRGBE-13">
          <mxGeometry relative="1" as="geometry" />
        </mxCell>
        <mxCell id="arnfnbacI_k0kXiNRGBE-16" value="" style="edgeStyle=orthogonalEdgeStyle;rounded=0;orthogonalLoop=1;jettySize=auto;html=1;" edge="1" parent="1" source="arnfnbacI_k0kXiNRGBE-11" target="arnfnbacI_k0kXiNRGBE-15">
          <mxGeometry relative="1" as="geometry" />
        </mxCell>
        <mxCell id="arnfnbacI_k0kXiNRGBE-11" value="result = find()" style="whiteSpace=wrap;html=1;strokeWidth=2;" vertex="1" parent="1">
          <mxGeometry x="365" y="290" width="120" height="50" as="geometry" />
        </mxCell>
        <mxCell id="arnfnbacI_k0kXiNRGBE-13" value="find(arr[], target)" style="shape=process;whiteSpace=wrap;html=1;backgroundOutline=1;strokeWidth=2;" vertex="1" parent="1">
          <mxGeometry x="565" y="285" width="135" height="60" as="geometry" />
        </mxCell>
        <mxCell id="arnfnbacI_k0kXiNRGBE-18" value="" style="edgeStyle=orthogonalEdgeStyle;rounded=0;orthogonalLoop=1;jettySize=auto;html=1;" edge="1" parent="1" source="arnfnbacI_k0kXiNRGBE-15" target="arnfnbacI_k0kXiNRGBE-17">
          <mxGeometry relative="1" as="geometry" />
        </mxCell>
        <mxCell id="arnfnbacI_k0kXiNRGBE-15" value="Display result" style="shape=parallelogram;perimeter=parallelogramPerimeter;whiteSpace=wrap;html=1;fixedSize=1;strokeWidth=2;" vertex="1" parent="1">
          <mxGeometry x="365" y="380" width="120" height="40" as="geometry" />
        </mxCell>
        <mxCell id="arnfnbacI_k0kXiNRGBE-17" value="Stop" style="ellipse;whiteSpace=wrap;html=1;strokeWidth=2;" vertex="1" parent="1">
          <mxGeometry x="385" y="450" width="80" height="40" as="geometry" />
        </mxCell>
      </root>
    </mxGraphModel>
  </diagram>
</mxfile>
